<!-- Copyright 2019-2023 VMware, Inc.
SPDX-License-Identifier: Apache-2.0 -->
<!-- Generator: Adobe Illustrator 24.0.3, SVG Export Plug-In . SVG Version: 6.00 Build 0)  -->
<svg version="1.1" id="Layer_1" xmlns="http://www.w3.org/2000/svg" xmlns:xlink="http://www.w3.org/1999/xlink" x="0px" y="0px"
	 viewBox="0 0 24 24" width="22" height='22' style="enable-background:new 0 0 24 24;min-width: 22px;" xml:space="preserve">
<style type="text/css">
	.st0{fill:#0077b8;}
</style>
<path class="st0" d="M14 4.8c-.2.3 0 .7.2 1l3.5 2.5a.7.7 0 001-.2c.2-.3.2-.7-.2-1l-3.4-2.5a.7.7 0 00-1 .2zM12 5.5A2.2 2.2 0 1012 1a2.2 2.2 0 000 4.5zM20.8 7.4a2.2 2.2 0 100 4.5 2.2 2.2 0 000-4.5zM17.4 17.7a2.2 2.2 0 100 4.5 2.2 2.2 0 000-4.5zM6.6 17.7a2.2 2.2 0 100 4.5 2.2 2.2 0 000-4.5zM5.5 9.6a2.2 2.2 0 10-4.5 0 2.2 2.2 0 004.5 0zM5.9 8.4l.4-.1 3.5-2.5a.7.7 0 10-.9-1.2L5.5 7.2a.7.7 0 00.4 1.2zM5.6 17.6h.2c.4-.2.6-.6.4-1l-1.3-4a.7.7 0 10-1.3.4l1.3 4c.1.4.4.6.7.6zM20 12a.7.7 0 00-1 .5l-1.2 4.1a.7.7 0 101.3.5l1.3-4.1c.2-.4 0-.8-.4-1zM14.2 19.2H9.8a.7.7 0 100 1.5h4.4a.7.7 0 100-1.5z"/>
</svg>
