<!-- Copyright 2019-2023 VMware, Inc.
SPDX-License-Identifier: Apache-2.0 -->
<!-- Generator: Adobe Illustrator 24.0.3, SVG Export Plug-In . SVG Version: 6.00 Build 0)  -->
<svg version="1.1" id="Layer_1" xmlns="http://www.w3.org/2000/svg" xmlns:xlink="http://www.w3.org/1999/xlink" x="0px" y="0px"
	 viewBox="0 0 24 24" width="22" height='22' style="enable-background:new 0 0 24 24;min-width: 22px;" xml:space="preserve">
<style type="text/css">
	.st0{fill:#0077b8;}
</style>
<path class="st0" d="M3.3 5a2.3 2.3 0 100 4.7 2.3 2.3 0 000-4.7zM20.6 9.6a2.3 2.3 0 100-4.6 2.3 2.3 0 000 4.6zM3.3 16.5a2.3 2.3 0 100 4.6 2.3 2.3 0 000-4.6zM20.6 16.5a2.3 2.3 0 100 4.6 2.3 2.3 0 000-4.6zM4 15.3v-4.4a.7.7 0 00-1.4 0v4.4a.7.7 0 001.4 0zM17.1 6.6H6.8a.7.7 0 100 1.5h10.3a.7.7 0 100-1.5zM17.1 18H6.8a.7.7 0 100 1.5h10.3a.7.7 0 100-1.5zM20 10.9v4.4a.7.7 0 101.4 0v-4.4a.7.7 0 00-1.5 0z"/>
</svg>
