<!-- Copyright 2019-2023 VMware, Inc.
SPDX-License-Identifier: Apache-2.0 -->
<!-- Generator: Adobe Illustrator 24.0.3, SVG Export Plug-In . SVG Version: 6.00 Build 0)  -->
<svg version="1.1" id="Layer_1" xmlns="http://www.w3.org/2000/svg" xmlns:xlink="http://www.w3.org/1999/xlink" x="0px" y="0px"
	 viewBox="0 0 24 24" width="22" height='22' style="enable-background:new 0 0 24 24;min-width: 22px;" xml:space="preserve">
<style type="text/css">
	.st0{fill:#0077b8;}
</style>
<path class="st0" d="M6 12h3l-3.984 3.984-4.031-3.984h3c0-4.406 3.609-8.016 8.016-8.016 1.547 0 3.047 0.469 4.266 1.266l-1.453 1.453c-0.844-0.469-1.781-0.703-2.813-0.703-3.328 0-6 2.672-6 6zM18.984 8.016l4.031 3.984h-3c0 4.406-3.609 8.016-8.016 8.016-1.547 0-3.047-0.469-4.266-1.266l1.453-1.453c0.844 0.469 1.781 0.703 2.813 0.703 3.328 0 6-2.672 6-6h-3z"/>
</svg>
